<svg width="32" height="32" viewBox="0 0 32 32" fill="none" xmlns="http://www.w3.org/2000/svg">
  <circle cx="16" cy="16" r="16" fill="#1A1A1A"/>
  
  <path d="M10 9C10 8.44772 10.4477 8 11 8H17L21 12V23C21 23.5523 20.5523 24 20 24H11C10.4477 24 10 23.5523 10 23V9Z" fill="white"/>
  
  <path d="M17 8V10.5C17 11.3284 17.6716 12 18.5 12H21L17 8Z" fill="#E5E5E5"/>
  
  <circle cx="15.5" cy="14.5" r="1.2" fill="#1A1A1A"/>
  <circle cx="15.5" cy="17.5" r="1.2" fill="#1A1A1A"/>
  <circle cx="15.5" cy="20.5" r="0.8" fill="#1A1A1A"/>
  
  <line x1="15.5" y1="15.7" x2="15.5" y2="16.3" stroke="#1A1A1A" stroke-width="1.2" stroke-linecap="round"/>
  <line x1="15.5" y1="18.7" x2="15.5" y2="19.7" stroke="#1A1A1A" stroke-width="1.2" stroke-linecap="round"/>
</svg>
