<svg width="40" height="40" viewBox="0 0 40 40" fill="none" xmlns="http://www.w3.org/2000/svg">
  <!-- Background Circle -->
  <circle cx="20" cy="20" r="20" fill="#ff724fff"/>
  
  <!-- Document Icon -->
  <path d="M13 11C13 10.4477 13.4477 10 14 10H21L26 15V28C26 28.5523 25.5523 29 25 29H14C13.4477 29 13 28.5523 13 28V11Z" fill="white"/>
  
  <!-- Folded Corner -->
  <path d="M21 10V13C21 14.1046 21.8954 15 23 15H26L21 10Z" fill="#E5E5E5"/>
  
  <!-- Brain/Mind Symbol -->
  <circle cx="19.5" cy="18" r="1.5" fill="#1A1A1A"/>
  <circle cx="19.5" cy="22" r="1.5" fill="#1A1A1A"/>
  <circle cx="19.5" cy="26" r="1" fill="#1A1A1A"/>
  
  <!-- Connection Lines -->
  <line x1="19.5" y1="19.5" x2="19.5" y2="20.5" stroke="#1A1A1A" stroke-width="1.5" stroke-linecap="round"/>
  <line x1="19.5" y1="23.5" x2="19.5" y2="25" stroke="#1A1A1A" stroke-width="1.5" stroke-linecap="round"/>
</svg>
